<svg width="3667" height="608" viewBox="0 0 3667 608" fill="none" xmlns="http://www.w3.org/2000/svg">
<g filter="url(#filter0_i_219_4)">
<path d="M578.652 2.5C668.318 2.50005 778.395 2.49991 910.607 114.863C1001.23 191.878 1086.12 240.387 1251.15 240.387H2415.85C2580.88 240.387 2665.77 191.878 2756.39 114.863C2888.61 2.49991 2998.68 2.50005 3088.35 2.5H3664.5V604.809H2.5V2.5H578.652Z" fill="#E1E2E6"/>
</g>
<path d="M578.652 2.5V0V0V2.5ZM910.607 114.863L912.226 112.958V112.958L910.607 114.863ZM1251.15 240.387V242.887V240.387ZM2756.39 114.863L2754.77 112.958V112.958L2756.39 114.863ZM3088.35 2.5V0V0V2.5ZM3664.5 2.5H3667V0H3664.5V2.5ZM3664.5 604.809V607.309H3667V604.809H3664.5ZM2.5 604.809H0V607.309H2.5V604.809ZM2.5 2.5V0H0V2.5H2.5ZM578.652 2.5V5C623.5 5.00003 673.145 5.0093 728.059 18.9683C782.931 32.9166 843.162 60.8249 908.988 116.768L910.607 114.863L912.226 112.958C845.84 56.5383 784.927 28.265 729.291 14.1225C673.697 -0.00929594 623.471 2.69413e-05 578.652 0V2.5ZM910.607 114.863L908.988 116.768C954.392 155.355 998.503 186.923 1052.03 208.819C1105.57 230.72 1168.38 242.887 1251.15 242.887V240.387V237.887C1168.89 237.887 1106.74 225.799 1053.92 204.192C1001.09 182.58 957.443 151.386 912.226 112.958L910.607 114.863ZM1251.15 240.387V242.887H2415.85V240.387V237.887H1251.15V240.387ZM2415.85 240.387V242.887C2498.62 242.887 2561.43 230.72 2614.97 208.819C2668.5 186.923 2712.61 155.355 2758.01 116.768L2756.39 114.863L2754.77 112.958C2709.56 151.386 2665.91 182.58 2613.08 204.192C2560.26 225.799 2498.11 237.887 2415.85 237.887V240.387ZM2756.39 114.863L2758.01 116.768C2823.84 60.8249 2884.07 32.9166 2938.94 18.9683C2993.86 5.0093 3043.5 5.00003 3088.35 5V2.5V0C3043.53 2.69413e-05 2993.3 -0.00929594 2937.71 14.1225C2882.07 28.265 2821.16 56.5383 2754.77 112.958L2756.39 114.863ZM3088.35 2.5V5H3664.5V2.5V0H3088.35V2.5ZM3664.5 2.5H3662V604.809H3664.5H3667V2.5H3664.5ZM3664.5 604.809V602.309H2.5V604.809V607.309H3664.5V604.809ZM2.5 604.809H5V2.5H2.5H0V604.809H2.5ZM2.5 2.5V5H578.652V2.5V0H2.5V2.5Z" fill="#36BFED"/>
<defs>
<filter id="filter0_i_219_4" x="0" y="0" width="3667" height="641.309" filterUnits="userSpaceOnUse" color-interpolation-filters="sRGB">
<feFlood flood-opacity="0" result="BackgroundImageFix"/>
<feBlend mode="normal" in="SourceGraphic" in2="BackgroundImageFix" result="shape"/>
<feColorMatrix in="SourceAlpha" type="matrix" values="0 0 0 0 0 0 0 0 0 0 0 0 0 0 0 0 0 0 127 0" result="hardAlpha"/>
<feOffset dy="34"/>
<feGaussianBlur stdDeviation="20"/>
<feComposite in2="hardAlpha" operator="arithmetic" k2="-1" k3="1"/>
<feColorMatrix type="matrix" values="0 0 0 0 0 0 0 0 0 0 0 0 0 0 0 0 0 0 0.09 0"/>
<feBlend mode="normal" in2="shape" result="effect1_innerShadow_219_4"/>
</filter>
</defs>
</svg>
